<svg width="5287" height="5288" viewBox="0 0 5287 5288" fill="none" xmlns="http://www.w3.org/2000/svg">
<path d="M5174.5 2486.29L4089.94 2111.7C3660.78 1963.36 3323.28 1626.28 3175.37 1197.1L2801.21 112.502C2749.54 -37.5006 2537.46 -37.5006 2485.79 112.502L2111.63 1197.1C1963.3 1626.28 1626.22 1963.78 1197.06 2111.7L112.498 2486.29C-37.4994 2537.96 -37.4994 2750.04 112.498 2801.71L1197.06 3176.3C1626.22 3324.64 1963.72 3661.72 2111.63 4090.9L2485.79 5175.5C2537.46 5325.5 2749.54 5325.5 2801.21 5175.5L3175.37 4090.9C3323.7 3661.72 3660.78 3324.22 4089.94 3176.3L5174.5 2801.71C5324.5 2750.04 5324.5 2537.96 5174.5 2486.29ZM3366.2 2689.21L3056.2 2796.29C2933.7 2838.79 2837.04 2935.05 2794.95 3057.55L2687.87 3367.55C2673.29 3410.47 2612.46 3410.47 2597.88 3367.55L2490.79 3057.55C2448.29 2935.05 2352.05 2838.38 2229.55 2796.29L1919.55 2689.21C1876.64 2674.62 1876.64 2613.79 1919.55 2599.21L2229.55 2492.12C2352.46 2449.62 2448.71 2353.37 2490.79 2230.87L2597.88 1920.86C2612.46 1877.95 2673.29 1877.95 2687.87 1920.86L2794.95 2230.87C2837.45 2353.37 2933.7 2450.04 3056.2 2492.12L3366.2 2599.21C3409.11 2613.79 3409.11 2674.62 3366.2 2689.21Z" fill="#000CB2"/>
</svg>
